<svg width="518" height="86" viewBox="0 0 518 86" fill="none" xmlns="http://www.w3.org/2000/svg">
<path d="M63.1 6.17999L55.58 19.9L62.5 33.95L47.27 30.96L39.79 38.38C41.55 39.56 43.31 40.76 45.06 41.95C47.33 40.05 49.53 38.02 51.65 35.83C52.23 36.58 52.81 37.32 53.38 38.07C51.59 40 49.9 42.05 48.15 44.04C54.61 48.4 64.2 49.98 71.09 53.45C75.9 55.87 80.4 58.37 84.96 60.85V1.14999H40.98L47.75 8.5L63.1 6.17999ZM75.54 41.19C75.84 45.96 74.43 49.69 68.06 50.18C63.55 49.62 61.14 46.26 60.82 41.3C60.52 36.49 63.25 33.45 67.76 33.11C73 32.72 75.24 36.37 75.54 41.19Z" fill="#4764AC" stroke="white" stroke-miterlimit="10"/>
<path d="M36.91 41.23L36.19 41.95L35.95 40C34.95 38.7 33.97 37.37 32.92 36.14C33.38 35.68 33.83 35.21 34.29 34.74C34.67 34.98 35.04 35.23 35.41 35.48L34.3 26.37L20.54 19.12L34.6 12.49L36.49 1.14001H1.23999V43.85C3.96999 43.22 8.18999 39.38 11.41 38.62C12.55 36.92 14.45 35.89 16.92 35.7C17.6 35.65 18.23 35.67 18.81 35.76C18.84 35.49 18.88 35.22 18.93 34.95C22.45 34.29 25.39 33.74 28.89 33.08C27.8 34.67 26.89 35.98 26.47 36.59C29.59 39.97 32.6 43.23 35.6 46.48C35.28 46.96 34.96 47.44 34.63 47.92C32.12 46.86 29.62 45.8 27.09 44.73C24.28 55.3 22.57 56.13 12.7 51.93C11.9 54.99 11.09 58.1 10.29 61.2C9.43999 61.12 8.59999 61.03 7.74999 60.95C7.14999 56.43 6.52999 51.9 5.81999 46.63C5.52999 46.61 3.63999 46.52 1.74999 46.43C1.57999 45.84 1.40999 45.25 1.23999 44.67V64.59C15.18 59.69 28.81 54.15 40.81 45.3C39.35 44.13 38.1 42.72 36.91 41.23Z" fill="#74B957" stroke="white" stroke-miterlimit="10"/>
<path d="M1.23999 70.19V84.86H10.97C11.04 84.65 11.1 84.44 11.18 84.23C17.28 67.56 16.7 66.9 1.23999 70.19Z" fill="#E84E0F" stroke="white" stroke-miterlimit="10"/>
<path d="M44.2 48.23C43.44 48.97 42.66 49.69 41.84 50.35C32.5 57.94 31.6 67.52 34.22 78.2C34.77 80.44 35.43 82.65 36.08 84.86H54.52C54.56 84.51 54.61 84.16 54.65 83.81C56.23 70.11 54.22 57.8 44.2 48.23Z" fill="#B14191" stroke="white" stroke-miterlimit="10"/>
<path d="M84.96 67.18C81.89 65.93 78.79 64.91 75.57 64.79C76.69 70.95 77.83 78.11 78.93 84.87H84.96V67.18Z" fill="#EE7130" stroke="white" stroke-miterlimit="10"/>
<path d="M1.01999 43.9C1.08999 44.15 1.16999 44.41 1.23999 44.66V43.84C1.16999 43.86 1.08999 43.89 1.01999 43.9Z" fill="white"/>
<path d="M103.62 14.69H105.32L116.38 38.61H114.45L111.43 31.96H97.42L94.4 38.61H92.57L103.62 14.69ZM110.68 30.36L104.44 16.62L98.16 30.36H110.68Z" fill="#00A69B"/>
<path d="M125.84 39.01C124.75 39.01 123.78 38.83 122.92 38.48C122.06 38.13 121.33 37.64 120.73 37C120.13 36.37 119.68 35.61 119.37 34.74C119.07 33.87 118.91 32.91 118.91 31.87V21.3H120.57V31.58C120.57 33.37 121.04 34.8 121.99 35.87C122.94 36.94 124.3 37.48 126.06 37.48C126.9 37.48 127.68 37.33 128.42 37.02C129.16 36.71 129.79 36.29 130.34 35.75C130.89 35.21 131.31 34.56 131.61 33.8C131.91 33.04 132.07 32.21 132.07 31.31V21.3H133.73V38.6H132.07V35.38C131.48 36.4 130.69 37.26 129.69 37.96C128.69 38.66 127.43 39.01 125.84 39.01Z" fill="#00A69B"/>
<path d="M138.53 13.84H140.19V38.6H138.53V13.84Z" fill="#00A69B"/>
<path d="M150.24 39.01C149.43 39.01 148.62 38.9 147.83 38.67C147.04 38.44 146.33 38.11 145.69 37.65C145.06 37.2 144.54 36.63 144.15 35.95C143.75 35.27 143.56 34.48 143.56 33.58V33.51C143.56 32.61 143.75 31.8 144.12 31.1C144.49 30.4 145.01 29.81 145.66 29.34C146.32 28.87 147.11 28.5 148.04 28.25C148.97 28 150 27.88 151.13 27.88C152.35 27.88 153.4 27.95 154.28 28.08C155.16 28.22 156.02 28.4 156.86 28.62V27.88C156.86 26.13 156.36 24.81 155.35 23.93C154.34 23.05 152.95 22.61 151.16 22.61C150.1 22.61 149.12 22.74 148.24 23C147.36 23.26 146.52 23.59 145.73 24L145.12 22.54C146.07 22.08 147.03 21.71 148 21.43C148.97 21.15 150.06 21.01 151.26 21.01C153.63 21.01 155.45 21.64 156.72 22.91C157.89 24.09 158.48 25.71 158.48 27.8V38.59H156.85V35.71C156.56 36.12 156.2 36.52 155.78 36.91C155.36 37.31 154.88 37.66 154.34 37.96C153.8 38.27 153.18 38.51 152.49 38.71C151.8 38.91 151.05 39.01 150.24 39.01ZM150.34 37.42C151.22 37.42 152.06 37.29 152.85 37.03C153.64 36.77 154.34 36.41 154.94 35.95C155.54 35.49 156.01 34.93 156.36 34.28C156.71 33.63 156.89 32.91 156.89 32.12V30.16C156.17 29.98 155.32 29.81 154.35 29.64C153.38 29.47 152.27 29.39 151.03 29.39C149.2 29.39 147.79 29.76 146.81 30.49C145.83 31.22 145.33 32.2 145.33 33.41V33.48C145.33 34.11 145.47 34.67 145.74 35.15C146.01 35.63 146.38 36.05 146.84 36.38C147.3 36.72 147.84 36.98 148.45 37.16C149.05 37.33 149.68 37.42 150.34 37.42Z" fill="#00A69B"/>
<path d="M168.28 38.94C167.01 38.94 165.75 38.7 164.48 38.23C163.21 37.76 162.12 37.15 161.19 36.4L162.17 35.08C163.12 35.8 164.12 36.36 165.16 36.76C166.2 37.16 167.27 37.35 168.38 37.35C169.56 37.35 170.55 37.06 171.35 36.47C172.15 35.88 172.55 35.08 172.55 34.07V34C172.55 33.5 172.43 33.08 172.18 32.71C171.93 32.35 171.59 32.03 171.16 31.76C170.73 31.49 170.24 31.26 169.7 31.08C169.16 30.9 168.58 30.72 167.97 30.54C167.27 30.34 166.56 30.12 165.85 29.9C165.14 29.67 164.5 29.39 163.93 29.04C163.36 28.69 162.91 28.26 162.56 27.74C162.21 27.22 162.03 26.58 162.03 25.81V25.74C162.03 25.04 162.17 24.4 162.45 23.83C162.73 23.25 163.12 22.75 163.62 22.32C164.12 21.89 164.72 21.56 165.42 21.32C166.12 21.08 166.89 20.96 167.73 20.96C168.77 20.96 169.84 21.13 170.94 21.48C172.04 21.83 173.01 22.3 173.87 22.89L172.99 24.28C172.2 23.76 171.34 23.34 170.43 23.03C169.51 22.71 168.59 22.55 167.67 22.55C166.47 22.55 165.52 22.84 164.8 23.41C164.09 23.99 163.73 24.7 163.73 25.56V25.63C163.73 26.1 163.87 26.52 164.14 26.87C164.41 27.22 164.77 27.52 165.21 27.77C165.65 28.02 166.17 28.24 166.75 28.43C167.34 28.62 167.94 28.81 168.55 28.99C169.25 29.19 169.94 29.41 170.62 29.65C171.3 29.89 171.91 30.19 172.45 30.56C172.99 30.93 173.43 31.38 173.76 31.9C174.09 32.42 174.25 33.06 174.25 33.83V33.9C174.25 34.67 174.1 35.36 173.79 35.98C173.48 36.6 173.06 37.13 172.52 37.57C171.98 38.01 171.34 38.35 170.62 38.59C169.9 38.83 169.12 38.94 168.28 38.94Z" fill="#00A69B"/>
<path d="M186.57 14.86H188.33V25.89H203.53V14.86H205.29V38.61H203.53V27.48H188.33V38.61H186.57V14.86Z" fill="#00A69B"/>
<path d="M217.86 39.01C216.57 39.01 215.39 38.77 214.32 38.28C213.25 37.79 212.32 37.14 211.53 36.33C210.74 35.52 210.12 34.57 209.68 33.48C209.24 32.39 209.02 31.24 209.02 30.02V29.95C209.02 28.73 209.24 27.58 209.68 26.49C210.12 25.4 210.74 24.44 211.54 23.61C212.34 22.77 213.28 22.11 214.37 21.63C215.45 21.14 216.64 20.9 217.92 20.9C219.21 20.9 220.39 21.14 221.46 21.63C222.53 22.12 223.46 22.77 224.25 23.58C225.04 24.39 225.66 25.34 226.09 26.43C226.53 27.52 226.75 28.67 226.75 29.89V29.96C226.75 31.18 226.53 32.33 226.09 33.42C225.65 34.51 225.03 35.47 224.23 36.3C223.43 37.14 222.49 37.8 221.4 38.28C220.33 38.77 219.15 39.01 217.86 39.01ZM217.93 37.42C218.95 37.42 219.9 37.22 220.77 36.83C221.64 36.44 222.39 35.91 223.01 35.24C223.63 34.57 224.12 33.79 224.47 32.89C224.82 31.99 225 31.03 225 30.02V29.95C225 28.91 224.82 27.94 224.46 27.03C224.1 26.12 223.59 25.32 222.95 24.65C222.3 23.97 221.54 23.45 220.67 23.06C219.8 22.68 218.86 22.49 217.87 22.49C216.85 22.49 215.9 22.69 215.03 23.08C214.16 23.47 213.41 24 212.78 24.67C212.16 25.33 211.67 26.12 211.32 27.02C210.97 27.92 210.79 28.88 210.79 29.89V29.96C210.79 31 210.97 31.97 211.33 32.88C211.69 33.79 212.2 34.59 212.84 35.26C213.48 35.93 214.25 36.46 215.12 36.85C216 37.22 216.93 37.42 217.93 37.42Z" fill="#00A69B"/>
<path d="M235.75 38.94C234.48 38.94 233.22 38.7 231.95 38.23C230.68 37.76 229.59 37.15 228.66 36.4L229.64 35.08C230.59 35.8 231.58 36.36 232.62 36.76C233.66 37.16 234.74 37.35 235.84 37.35C237.01 37.35 238.01 37.06 238.81 36.47C239.61 35.88 240.01 35.08 240.01 34.07V34C240.01 33.5 239.89 33.08 239.64 32.71C239.39 32.35 239.05 32.03 238.62 31.76C238.19 31.49 237.7 31.26 237.16 31.08C236.62 30.9 236.04 30.72 235.43 30.54C234.73 30.34 234.02 30.12 233.31 29.9C232.6 29.67 231.96 29.39 231.39 29.04C230.82 28.69 230.37 28.26 230.02 27.74C229.67 27.22 229.49 26.58 229.49 25.81V25.74C229.49 25.04 229.63 24.4 229.91 23.83C230.19 23.25 230.58 22.75 231.08 22.32C231.58 21.89 232.18 21.56 232.88 21.32C233.58 21.08 234.35 20.96 235.19 20.96C236.23 20.96 237.3 21.13 238.4 21.48C239.5 21.83 240.48 22.3 241.33 22.89L240.45 24.28C239.66 23.76 238.8 23.34 237.89 23.03C236.97 22.71 236.05 22.55 235.13 22.55C233.93 22.55 232.98 22.84 232.26 23.41C231.55 23.99 231.19 24.7 231.19 25.56V25.63C231.19 26.1 231.33 26.52 231.6 26.87C231.87 27.22 232.23 27.52 232.67 27.77C233.11 28.02 233.63 28.24 234.21 28.43C234.79 28.62 235.4 28.81 236.01 28.99C236.71 29.19 237.4 29.41 238.08 29.65C238.76 29.89 239.37 30.19 239.91 30.56C240.45 30.93 240.89 31.38 241.22 31.9C241.55 32.42 241.71 33.06 241.71 33.83V33.9C241.71 34.67 241.56 35.36 241.25 35.98C240.95 36.6 240.52 37.13 239.98 37.57C239.44 38.01 238.8 38.35 238.08 38.59C237.36 38.83 236.59 38.94 235.75 38.94Z" fill="#00A69B"/>
<path d="M245.25 21.3H246.91V25.17C247.27 24.61 247.69 24.06 248.16 23.54C248.63 23.02 249.16 22.57 249.73 22.18C250.31 21.8 250.95 21.48 251.66 21.25C252.37 21.01 253.16 20.89 254.01 20.89C255.05 20.89 256.07 21.09 257.07 21.5C258.07 21.91 258.97 22.5 259.76 23.26C260.55 24.03 261.19 24.97 261.67 26.09C262.15 27.21 262.4 28.47 262.4 29.87V29.94C262.4 31.34 262.16 32.6 261.67 33.72C261.18 34.84 260.55 35.79 259.76 36.57C258.97 37.35 258.07 37.95 257.07 38.37C256.07 38.79 255.04 39 254.01 39C253.15 39 252.36 38.89 251.64 38.66C250.92 38.43 250.27 38.13 249.69 37.74C249.11 37.36 248.6 36.91 248.13 36.42C247.67 35.92 247.25 35.4 246.89 34.86V44.02H245.23V21.3H245.25ZM253.87 37.42C254.82 37.42 255.71 37.25 256.53 36.91C257.36 36.57 258.07 36.08 258.68 35.45C259.29 34.82 259.77 34.04 260.12 33.13C260.47 32.22 260.65 31.18 260.65 30.03V29.96C260.65 28.83 260.47 27.8 260.11 26.87C259.75 25.94 259.26 25.16 258.63 24.51C258.01 23.87 257.28 23.37 256.46 23.02C255.63 22.67 254.77 22.49 253.87 22.49C252.96 22.49 252.09 22.67 251.24 23.03C250.39 23.39 249.64 23.9 248.98 24.56C248.32 25.22 247.8 26 247.4 26.9C247 27.8 246.81 28.81 246.81 29.92V29.99C246.81 31.1 247.01 32.11 247.4 33.03C247.79 33.95 248.32 34.73 248.98 35.37C249.64 36.01 250.39 36.52 251.24 36.88C252.09 37.24 252.96 37.42 253.87 37.42Z" fill="#00A69B"/>
<path d="M265.91 14.52H267.98V16.79H265.91V14.52ZM266.12 21.3H267.78V38.6H266.12V21.3Z" fill="#00A69B"/>
<path d="M278.33 38.91C277.65 38.91 277.02 38.82 276.43 38.64C275.84 38.46 275.33 38.17 274.89 37.78C274.45 37.38 274.1 36.89 273.86 36.29C273.61 35.69 273.49 34.98 273.49 34.17V22.84H270.98V21.31H273.49V15.78H275.15V21.31H281.22V22.84H275.15V33.97C275.15 35.21 275.47 36.08 276.12 36.58C276.77 37.08 277.6 37.32 278.61 37.32C279.04 37.32 279.45 37.28 279.83 37.19C280.21 37.1 280.66 36.96 281.15 36.74V38.3C280.7 38.5 280.25 38.66 279.81 38.76C279.36 38.86 278.87 38.91 278.33 38.91Z" fill="#00A69B"/>
<path d="M289.62 39.01C288.81 39.01 288 38.9 287.21 38.67C286.42 38.44 285.71 38.11 285.07 37.65C284.44 37.2 283.92 36.63 283.53 35.95C283.13 35.27 282.94 34.48 282.94 33.58V33.51C282.94 32.61 283.13 31.8 283.5 31.1C283.87 30.4 284.39 29.81 285.04 29.34C285.7 28.87 286.49 28.5 287.42 28.25C288.35 28 289.38 27.88 290.51 27.88C291.73 27.88 292.78 27.95 293.67 28.08C294.56 28.21 295.41 28.4 296.25 28.62V27.88C296.25 26.13 295.75 24.81 294.74 23.93C293.73 23.05 292.34 22.61 290.55 22.61C289.49 22.61 288.51 22.74 287.63 23C286.75 23.26 285.91 23.59 285.12 24L284.51 22.54C285.46 22.08 286.42 21.71 287.39 21.43C288.36 21.15 289.45 21.01 290.65 21.01C293.03 21.01 294.85 21.64 296.11 22.91C297.29 24.09 297.87 25.71 297.87 27.8V38.59H296.24V35.71C295.95 36.12 295.59 36.52 295.17 36.91C294.75 37.31 294.27 37.66 293.73 37.96C293.19 38.27 292.57 38.51 291.88 38.71C291.19 38.91 290.44 39.01 289.62 39.01ZM289.73 37.42C290.61 37.42 291.45 37.29 292.24 37.03C293.03 36.77 293.73 36.41 294.33 35.95C294.93 35.49 295.4 34.93 295.75 34.28C296.1 33.63 296.28 32.91 296.28 32.12V30.16C295.56 29.98 294.71 29.81 293.74 29.64C292.77 29.47 291.66 29.39 290.42 29.39C288.59 29.39 287.18 29.76 286.2 30.49C285.22 31.22 284.72 32.2 284.72 33.41V33.48C284.72 34.11 284.86 34.67 285.13 35.15C285.4 35.63 285.77 36.05 286.23 36.38C286.69 36.72 287.23 36.98 287.84 37.16C288.45 37.34 289.07 37.42 289.73 37.42Z" fill="#00A69B"/>
<path d="M302.31 13.84H303.97V38.6H302.31V13.84Z" fill="#00A69B"/>
<path d="M314.01 39.01C313.2 39.01 312.39 38.9 311.6 38.67C310.81 38.44 310.1 38.11 309.46 37.65C308.83 37.2 308.31 36.63 307.92 35.95C307.52 35.27 307.33 34.48 307.33 33.58V33.51C307.33 32.61 307.52 31.8 307.89 31.1C308.26 30.4 308.78 29.81 309.43 29.34C310.09 28.87 310.88 28.5 311.81 28.25C312.74 28 313.77 27.88 314.9 27.88C316.12 27.88 317.17 27.95 318.06 28.08C318.95 28.21 319.8 28.4 320.64 28.62V27.88C320.64 26.13 320.14 24.81 319.13 23.93C318.12 23.05 316.73 22.61 314.94 22.61C313.88 22.61 312.9 22.74 312.02 23C311.14 23.26 310.3 23.59 309.51 24L308.9 22.54C309.85 22.08 310.81 21.71 311.78 21.43C312.75 21.15 313.84 21.01 315.04 21.01C317.42 21.01 319.24 21.64 320.5 22.91C321.68 24.09 322.26 25.71 322.26 27.8V38.59H320.63V35.71C320.34 36.12 319.98 36.52 319.56 36.91C319.14 37.31 318.66 37.66 318.12 37.96C317.58 38.27 316.96 38.51 316.27 38.71C315.58 38.91 314.83 39.01 314.01 39.01ZM314.12 37.42C315 37.42 315.84 37.29 316.63 37.03C317.42 36.77 318.12 36.41 318.72 35.95C319.32 35.49 319.79 34.93 320.14 34.28C320.49 33.63 320.67 32.91 320.67 32.12V30.16C319.95 29.98 319.1 29.81 318.13 29.64C317.16 29.47 316.05 29.39 314.81 29.39C312.98 29.39 311.57 29.76 310.59 30.49C309.61 31.22 309.11 32.2 309.11 33.41V33.48C309.11 34.11 309.25 34.67 309.52 35.15C309.79 35.63 310.16 36.05 310.62 36.38C311.08 36.72 311.62 36.98 312.23 37.16C312.84 37.34 313.46 37.42 314.12 37.42Z" fill="#00A69B"/>
<path d="M326.46 21.3H328.12V26.22C328.46 25.45 328.89 24.74 329.41 24.08C329.93 23.42 330.52 22.86 331.17 22.4C331.82 21.94 332.54 21.59 333.32 21.35C334.1 21.11 334.92 21.01 335.78 21.03V22.86H335.61C334.61 22.86 333.66 23.05 332.76 23.42C331.85 23.79 331.06 24.35 330.37 25.08C329.68 25.82 329.13 26.72 328.72 27.79C328.31 28.86 328.11 30.1 328.11 31.5V38.59H326.45V21.3H326.46Z" fill="#00A69B"/>
<path d="M338.3 14.52H340.37V16.79H338.3V14.52ZM338.51 21.3H340.17V38.6H338.51V21.3Z" fill="#00A69B"/>
<path d="M350.21 39.01C349.4 39.01 348.59 38.9 347.8 38.67C347.01 38.44 346.3 38.11 345.66 37.65C345.03 37.2 344.51 36.63 344.12 35.95C343.72 35.27 343.53 34.48 343.53 33.58V33.51C343.53 32.61 343.72 31.8 344.09 31.1C344.46 30.4 344.98 29.81 345.63 29.34C346.29 28.87 347.08 28.5 348.01 28.25C348.94 28 349.97 27.88 351.1 27.88C352.32 27.88 353.37 27.95 354.26 28.08C355.15 28.21 356 28.4 356.84 28.62V27.88C356.84 26.13 356.34 24.81 355.33 23.93C354.32 23.05 352.93 22.61 351.14 22.61C350.08 22.61 349.1 22.74 348.22 23C347.34 23.26 346.5 23.59 345.71 24L345.1 22.54C346.05 22.08 347.01 21.71 347.98 21.43C348.95 21.15 350.04 21.01 351.24 21.01C353.62 21.01 355.44 21.64 356.7 22.91C357.88 24.09 358.46 25.71 358.46 27.8V38.59H356.83V35.71C356.54 36.12 356.18 36.52 355.76 36.91C355.34 37.31 354.86 37.66 354.32 37.96C353.78 38.27 353.16 38.51 352.47 38.71C351.78 38.91 351.02 39.01 350.21 39.01ZM350.31 37.42C351.19 37.42 352.03 37.29 352.82 37.03C353.61 36.77 354.31 36.41 354.91 35.95C355.51 35.49 355.98 34.93 356.33 34.28C356.68 33.63 356.86 32.91 356.86 32.12V30.16C356.14 29.98 355.29 29.81 354.32 29.64C353.35 29.47 352.24 29.39 351 29.39C349.17 29.39 347.76 29.76 346.78 30.49C345.8 31.22 345.3 32.2 345.3 33.41V33.48C345.3 34.11 345.44 34.67 345.71 35.15C345.98 35.63 346.35 36.05 346.81 36.38C347.27 36.72 347.81 36.98 348.42 37.16C349.03 37.34 349.66 37.42 350.31 37.42Z" fill="#00A69B"/>
<path d="M368.26 38.94C366.99 38.94 365.73 38.7 364.46 38.23C363.19 37.76 362.1 37.15 361.17 36.4L362.15 35.08C363.1 35.8 364.09 36.36 365.13 36.76C366.17 37.16 367.25 37.35 368.35 37.35C369.52 37.35 370.52 37.06 371.32 36.47C372.12 35.88 372.52 35.08 372.52 34.07V34C372.52 33.5 372.4 33.08 372.15 32.71C371.9 32.35 371.56 32.03 371.13 31.76C370.7 31.49 370.21 31.26 369.67 31.08C369.13 30.9 368.55 30.72 367.94 30.54C367.24 30.34 366.53 30.12 365.82 29.9C365.11 29.67 364.47 29.39 363.9 29.04C363.33 28.69 362.88 28.26 362.53 27.74C362.18 27.22 362 26.58 362 25.81V25.74C362 25.04 362.14 24.4 362.42 23.83C362.7 23.25 363.09 22.75 363.59 22.32C364.09 21.89 364.69 21.56 365.39 21.32C366.09 21.08 366.86 20.96 367.7 20.96C368.74 20.96 369.81 21.13 370.91 21.48C372.01 21.83 372.99 22.3 373.84 22.89L372.96 24.28C372.17 23.76 371.31 23.34 370.4 23.03C369.48 22.71 368.56 22.55 367.64 22.55C366.44 22.55 365.49 22.84 364.77 23.41C364.06 23.99 363.7 24.7 363.7 25.56V25.63C363.7 26.1 363.84 26.52 364.11 26.87C364.38 27.22 364.74 27.52 365.18 27.77C365.62 28.02 366.14 28.24 366.72 28.43C367.3 28.62 367.91 28.81 368.52 28.99C369.22 29.19 369.91 29.41 370.59 29.65C371.27 29.89 371.88 30.19 372.42 30.56C372.96 30.93 373.4 31.38 373.73 31.9C374.06 32.42 374.22 33.06 374.22 33.83V33.9C374.22 34.67 374.07 35.36 373.76 35.98C373.46 36.6 373.03 37.13 372.49 37.57C371.95 38.01 371.31 38.35 370.59 38.59C369.87 38.83 369.09 38.94 368.26 38.94Z" fill="#00A69B"/>
<path d="M109.37 85.05C105.97 85.05 102.75 84.53 99.71 83.48C96.67 82.43 93.96 80.86 91.57 78.76L97.43 71.76C101.3 74.8 105.41 76.32 109.75 76.32C111.2 76.32 112.29 76.09 113.03 75.64C113.77 75.19 114.14 74.55 114.14 73.71V73.6C114.14 73.2 114.05 72.84 113.87 72.51C113.69 72.18 113.35 71.89 112.87 71.61C112.38 71.34 111.72 71.07 110.89 70.8C110.06 70.53 108.99 70.23 107.69 69.9C105.66 69.43 103.78 68.91 102.04 68.35C100.3 67.79 98.79 67.07 97.51 66.18C96.22 65.29 95.21 64.2 94.47 62.9C93.73 61.6 93.36 59.97 93.36 58.02V57.91C93.36 56.14 93.69 54.51 94.36 53.02C95.03 51.54 96.01 50.25 97.29 49.17C98.57 48.08 100.12 47.24 101.93 46.65C103.74 46.06 105.78 45.75 108.06 45.75C111.32 45.75 114.22 46.18 116.77 47.03C119.32 47.88 121.63 49.14 123.69 50.8L118.43 58.24C116.69 56.97 114.91 56.03 113.08 55.42C111.25 54.81 109.49 54.5 107.79 54.5C106.52 54.5 105.57 54.73 104.94 55.18C104.31 55.63 103.99 56.22 103.99 56.94V57.05C103.99 57.48 104.09 57.86 104.29 58.19C104.49 58.52 104.83 58.81 105.32 59.09C105.81 59.36 106.48 59.63 107.33 59.9C108.18 60.17 109.27 60.45 110.61 60.74C112.78 61.21 114.73 61.76 116.47 62.4C118.21 63.03 119.69 63.8 120.92 64.71C122.15 65.61 123.09 66.71 123.74 67.99C124.39 69.27 124.72 70.8 124.72 72.58V72.69C124.72 74.64 124.35 76.38 123.61 77.9C122.87 79.42 121.83 80.71 120.49 81.78C119.15 82.85 117.54 83.66 115.66 84.22C113.78 84.77 111.68 85.05 109.37 85.05Z" fill="#00A69B"/>
<path d="M140.14 46.14H150.29L166.46 84.41H155.17L152.46 77.57H137.75L135.04 84.41H124.02L140.14 46.14ZM149.37 69.37L145.14 58.62L140.85 69.37H149.37Z" fill="#00A69B"/>
<path d="M167.33 46.41H177.15L192.78 66.49V46.41H203.2V84.4H194.03L177.75 63.56V84.4H167.33V46.41Z" fill="#00A69B"/>
<path d="M234.26 85.05C230.86 85.05 227.64 84.53 224.6 83.48C221.56 82.43 218.85 80.86 216.46 78.76L222.32 71.76C226.19 74.8 230.3 76.32 234.64 76.32C236.09 76.32 237.18 76.09 237.92 75.64C238.66 75.19 239.03 74.55 239.03 73.71V73.6C239.03 73.2 238.94 72.84 238.76 72.51C238.58 72.18 238.24 71.89 237.75 71.61C237.26 71.34 236.6 71.07 235.77 70.8C234.94 70.53 233.87 70.23 232.57 69.9C230.54 69.43 228.66 68.91 226.92 68.35C225.18 67.79 223.67 67.07 222.39 66.18C221.1 65.29 220.09 64.2 219.35 62.9C218.61 61.6 218.24 59.97 218.24 58.02V57.91C218.24 56.14 218.57 54.51 219.24 53.02C219.91 51.54 220.89 50.25 222.17 49.17C223.45 48.08 225 47.24 226.81 46.65C228.62 46.05 230.66 45.75 232.94 45.75C236.2 45.75 239.1 46.18 241.65 47.03C244.2 47.88 246.51 49.14 248.57 50.8L243.3 58.24C241.56 56.97 239.78 56.03 237.95 55.42C236.12 54.81 234.36 54.5 232.66 54.5C231.39 54.5 230.44 54.73 229.81 55.18C229.18 55.63 228.86 56.22 228.86 56.94V57.05C228.86 57.48 228.96 57.86 229.16 58.19C229.36 58.52 229.7 58.81 230.19 59.09C230.68 59.36 231.35 59.63 232.2 59.9C233.05 60.17 234.15 60.45 235.48 60.74C237.65 61.21 239.6 61.76 241.34 62.4C243.08 63.03 244.56 63.8 245.79 64.71C247.02 65.61 247.96 66.71 248.61 67.99C249.26 69.27 249.59 70.8 249.59 72.58V72.69C249.59 74.64 249.22 76.38 248.48 77.9C247.74 79.42 246.7 80.71 245.36 81.78C244.02 82.85 242.41 83.66 240.53 84.22C238.67 84.77 236.57 85.05 234.26 85.05Z" fill="#00A69B"/>
<path d="M251.9 46.41H282.46V55.31H262.32V61.12H280.56V69.42H262.32V75.44H282.73V84.4H251.9V46.41Z" fill="#00A69B"/>
<path d="M285.33 46.41H304.78C307.16 46.41 309.21 46.7 310.9 47.28C312.6 47.86 314.01 48.69 315.13 49.78C315.89 50.58 316.48 51.48 316.92 52.49C317.35 53.5 317.57 54.66 317.57 55.96V56.07C317.57 58.28 317.02 60.06 315.92 61.42C314.82 62.78 313.43 63.82 311.74 64.54C314.06 65.3 315.91 66.39 317.27 67.82C318.63 69.25 319.31 71.25 319.31 73.82V73.93C319.31 77.22 318.05 79.79 315.54 81.64C313.03 83.49 309.49 84.41 304.93 84.41H285.34V46.41H285.33ZM307.26 58.13C307.26 55.96 305.68 54.87 302.51 54.87H295.65V61.55H302.24C303.86 61.55 305.1 61.28 305.97 60.74C306.83 60.2 307.27 59.37 307.27 58.24V58.13H307.26ZM308.78 72.35C308.78 71.3 308.36 70.47 307.54 69.85C306.71 69.24 305.41 68.93 303.65 68.93H295.65V75.93H303.76C305.38 75.93 306.62 75.63 307.49 75.03C308.36 74.43 308.79 73.57 308.79 72.45V72.35H308.78Z" fill="#00A69B"/>
<path d="M334.45 46.14H344.6L360.77 84.41H349.48L346.77 77.57H332.06L329.35 84.41H318.33L334.45 46.14ZM343.68 69.37L339.45 58.62L335.16 69.37H343.68Z" fill="#00A69B"/>
<path d="M376.57 85.05C373.17 85.05 369.95 84.53 366.91 83.48C363.87 82.43 361.16 80.86 358.77 78.76L364.63 71.76C368.5 74.8 372.61 76.32 376.95 76.32C378.4 76.32 379.49 76.09 380.23 75.64C380.97 75.19 381.34 74.55 381.34 73.71V73.6C381.34 73.2 381.25 72.84 381.07 72.51C380.89 72.18 380.55 71.89 380.07 71.61C379.58 71.34 378.92 71.07 378.09 70.8C377.26 70.53 376.19 70.23 374.89 69.9C372.86 69.43 370.98 68.91 369.24 68.35C367.5 67.79 365.99 67.07 364.71 66.18C363.43 65.29 362.41 64.2 361.67 62.9C360.93 61.6 360.56 59.97 360.56 58.02V57.91C360.56 56.14 360.89 54.51 361.56 53.02C362.23 51.54 363.21 50.25 364.49 49.17C365.77 48.08 367.32 47.24 369.13 46.65C370.94 46.05 372.98 45.75 375.26 45.75C378.52 45.75 381.42 46.18 383.97 47.03C386.52 47.88 388.83 49.14 390.89 50.8L385.62 58.24C383.88 56.97 382.1 56.03 380.27 55.42C378.44 54.81 376.68 54.5 374.98 54.5C373.71 54.5 372.76 54.73 372.13 55.18C371.5 55.63 371.18 56.22 371.18 56.94V57.05C371.18 57.48 371.28 57.86 371.48 58.19C371.68 58.52 372.02 58.81 372.51 59.09C373 59.36 373.67 59.63 374.52 59.9C375.37 60.17 376.47 60.45 377.8 60.74C379.97 61.21 381.92 61.76 383.66 62.4C385.4 63.03 386.88 63.8 388.11 64.71C389.34 65.61 390.28 66.71 390.93 67.99C391.58 69.27 391.91 70.8 391.91 72.58V72.69C391.91 74.64 391.54 76.38 390.8 77.9C390.06 79.42 389.02 80.71 387.68 81.78C386.34 82.85 384.73 83.66 382.85 84.22C380.99 84.77 378.89 85.05 376.57 85.05Z" fill="#00A69B"/>
<path d="M402.41 55.63H391.07V46.4H424.34V55.63H412.94V84.4H402.41V55.63V55.63Z" fill="#00A69B"/>
<path d="M426.4 46.41H436.93V84.4H426.4V46.41Z" fill="#00A69B"/>
<path d="M454.19 46.14H464.34L480.51 84.41H469.22L466.51 77.57H451.8L449.09 84.41H438.07L454.19 46.14ZM463.41 69.37L459.18 58.62L454.89 69.37H463.41ZM461.08 34.47L470.9 37.46L462.87 43.27H455.22L461.08 34.47Z" fill="#00A69B"/>
<path d="M481.38 46.41H491.2L506.83 66.49V46.41H517.25V84.4H508.08L491.8 63.56V84.4H481.38V46.41V46.41Z" fill="#00A69B"/>
</svg>
